<svg xmlns="http://www.w3.org/2000/svg" xmlns:xlink="http://www.w3.org/1999/xlink" width="500" zoomAndPan="magnify" viewBox="0 0 375 374.999991" height="500" preserveAspectRatio="xMidYMid meet" version="1.0"><defs><clipPath id="d032c2a7af"><path d="M 92.714844 92 L 282.464844 92 L 282.464844 283 L 92.714844 283 Z M 92.714844 92 " clip-rule="nonzero"/></clipPath></defs><g clip-path="url(#d032c2a7af)"><path fill="#109ced" d="M 198.144531 243.613281 C 187.117188 253.59375 175.085938 262.164062 162.054688 269.328125 C 158.566406 271.375 154.957031 273.269531 151.226562 275.011719 C 147.875 273.625 144.617188 272.046875 141.445312 270.285156 C 138.273438 268.519531 135.214844 266.582031 132.269531 264.46875 C 129.320312 262.351562 126.503906 260.078125 123.816406 257.636719 C 121.132812 255.199219 118.59375 252.617188 116.203125 249.886719 C 113.8125 247.160156 111.589844 244.300781 109.527344 241.316406 C 107.464844 238.332031 105.578125 235.242188 103.871094 232.039062 C 102.164062 228.839844 100.648438 225.550781 99.316406 222.175781 C 97.988281 218.800781 96.855469 215.359375 95.921875 211.855469 C 99.710938 214.203125 103.679688 216.457031 107.648438 218.53125 C 114.597656 222.292969 121.734375 225.652344 129.0625 228.605469 C 136.390625 231.558594 143.859375 234.09375 151.476562 236.203125 C 159.089844 238.3125 166.796875 239.988281 174.601562 241.226562 C 182.402344 242.464844 190.25 243.261719 198.144531 243.613281 Z M 144.007812 224.667969 C 140.394531 217.707031 137.175781 210.5625 134.355469 203.242188 C 131.535156 195.921875 129.132812 188.46875 127.144531 180.878906 C 125.15625 173.289062 123.59375 165.613281 122.460938 157.851562 C 121.328125 150.085938 120.632812 142.285156 120.371094 134.445312 C 120.371094 129.933594 120.371094 125.421875 120.371094 121 C 118.195312 123.183594 116.132812 125.464844 114.183594 127.847656 C 112.230469 130.230469 110.398438 132.703125 108.691406 135.265625 C 106.980469 137.824219 105.398438 140.464844 103.945312 143.179688 C 102.496094 145.894531 101.175781 148.675781 99.996094 151.519531 C 98.816406 154.363281 97.777344 157.261719 96.878906 160.207031 C 95.980469 163.152344 95.226562 166.132812 94.617188 169.152344 C 94.011719 172.171875 93.554688 175.214844 93.242188 178.28125 C 92.933594 181.34375 92.773438 184.414062 92.761719 187.496094 C 92.757812 191.605469 93.027344 195.695312 93.574219 199.765625 C 96.941406 202.050781 100.371094 204.21875 103.859375 206.261719 C 116.566406 213.941406 129.980469 220.078125 144.097656 224.667969 Z M 199.859375 102.683594 C 203.738281 100.339844 207.707031 97.992188 211.765625 95.917969 C 208.28125 94.996094 204.753906 94.273438 201.1875 93.753906 C 197.621094 93.230469 194.03125 92.917969 190.429688 92.808594 C 186.824219 92.695312 183.226562 92.792969 179.632812 93.09375 C 176.039062 93.394531 172.476562 93.902344 168.941406 94.609375 C 165.40625 95.320312 161.921875 96.230469 158.492188 97.335938 C 155.058594 98.445312 151.703125 99.746094 148.421875 101.238281 C 145.136719 102.730469 141.949219 104.402344 138.859375 106.257812 C 135.769531 108.117188 132.792969 110.140625 129.933594 112.339844 C 129.933594 116.398438 129.394531 120.460938 129.304688 124.519531 C 129.097656 139.351562 130.511719 154.027344 133.542969 168.546875 C 137.757812 161.910156 142.324219 155.527344 147.25 149.402344 C 152.179688 143.273438 157.429688 137.441406 163.007812 131.898438 C 168.585938 126.359375 174.457031 121.148438 180.617188 116.261719 C 186.777344 111.378906 193.191406 106.851562 199.859375 102.683594 Z M 267.253906 155.917969 C 271.226562 157.992188 275.195312 160.25 278.984375 162.59375 C 278.050781 159.089844 276.917969 155.648438 275.585938 152.273438 C 274.257812 148.898438 272.738281 145.609375 271.03125 142.410156 C 269.324219 139.210938 267.441406 136.117188 265.378906 133.132812 C 263.316406 130.148438 261.089844 127.289062 258.699219 124.5625 C 256.308594 121.832031 253.773438 119.25 251.085938 116.8125 C 248.398438 114.375 245.582031 112.097656 242.636719 109.984375 C 239.6875 107.867188 236.628906 105.929688 233.457031 104.167969 C 230.289062 102.402344 227.027344 100.828125 223.675781 99.4375 C 219.949219 101.179688 216.339844 103.078125 212.851562 105.121094 C 199.832031 112.304688 187.800781 120.875 176.761719 130.835938 C 184.652344 131.1875 192.5 131.984375 200.304688 133.222656 C 208.105469 134.460938 215.816406 136.136719 223.429688 138.246094 C 231.042969 140.359375 238.511719 142.890625 245.839844 145.84375 C 253.167969 148.796875 260.308594 152.15625 267.253906 155.917969 Z M 254.535156 254.351562 C 256.722656 252.160156 258.796875 249.867188 260.761719 247.476562 C 262.726562 245.082031 264.566406 242.597656 266.289062 240.023438 C 268.007812 237.445312 269.597656 234.792969 271.058594 232.0625 C 272.515625 229.332031 273.839844 226.535156 275.023438 223.675781 C 276.210938 220.816406 277.253906 217.902344 278.152344 214.941406 C 279.050781 211.976562 279.804688 208.976562 280.410156 205.941406 C 281.011719 202.902344 281.46875 199.84375 281.773438 196.761719 C 282.078125 193.679688 282.230469 190.59375 282.230469 187.496094 C 282.238281 183.386719 281.964844 179.296875 281.421875 175.226562 C 278.050781 173 274.625 170.835938 271.132812 168.730469 C 258.410156 161.175781 244.996094 155.160156 230.894531 150.683594 C 234.511719 157.644531 237.730469 164.789062 240.546875 172.109375 C 243.367188 179.429688 245.773438 186.886719 247.761719 194.472656 C 249.75 202.0625 251.308594 209.738281 252.441406 217.503906 C 253.574219 225.265625 254.269531 233.066406 254.535156 240.90625 C 255.164062 245.417969 255.164062 249.929688 254.535156 254.351562 Z M 175.136719 272.394531 C 171.257812 274.742188 167.285156 277.085938 163.226562 279.164062 C 166.710938 280.085938 170.238281 280.808594 173.808594 281.328125 C 177.375 281.847656 180.960938 282.164062 184.566406 282.273438 C 188.167969 282.382812 191.769531 282.289062 195.359375 281.988281 C 198.953125 281.683594 202.519531 281.179688 206.054688 280.46875 C 209.589844 279.761719 213.070312 278.851562 216.503906 277.746094 C 219.933594 276.636719 223.292969 275.335938 226.574219 273.84375 C 229.855469 272.351562 233.042969 270.679688 236.132812 268.824219 C 239.226562 266.964844 242.199219 264.9375 245.058594 262.742188 C 245.058594 258.683594 245.601562 254.621094 245.691406 250.5625 C 245.894531 235.730469 244.480469 221.054688 241.449219 206.53125 C 237.234375 213.164062 232.664062 219.539062 227.738281 225.65625 C 222.808594 231.777344 217.554688 237.601562 211.976562 243.132812 C 206.398438 248.667969 200.53125 253.871094 194.371094 258.75 C 188.210938 263.625 181.800781 268.144531 175.136719 272.304688 Z M 175.136719 272.394531 " fill-opacity="1" fill-rule="nonzero"/></g></svg>